<svg width="24" height="25" viewBox="0 0 24 25" fill="none" xmlns="http://www.w3.org/2000/svg">
<path fill-rule="evenodd" clip-rule="evenodd" d="M18.7071 6.0468C19.0976 6.43732 19.0976 7.07049 18.7071 7.46101L6.70711 19.461C6.31658 19.8515 5.68342 19.8515 5.29289 19.461C4.90237 19.0705 4.90237 18.4373 5.29289 18.0468L17.2929 6.0468C17.6834 5.65628 18.3166 5.65628 18.7071 6.0468Z"/>
<path fill-rule="evenodd" clip-rule="evenodd" d="M5.29289 6.0468C5.68342 5.65628 6.31658 5.65628 6.70711 6.0468L18.7071 18.0468C19.0976 18.4373 19.0976 19.0705 18.7071 19.461C18.3166 19.8515 17.6834 19.8515 17.2929 19.461L5.29289 7.46101C4.90237 7.07049 4.90237 6.43732 5.29289 6.0468Z"/>
</svg>
